<?xml version="1.0" standalone="no"?><svg xmlns="http://www.w3.org/2000/svg" viewBox="0 0 1440 320"><path fill="#f3f4f5" fill-opacity="1" d="M0,224L21.8,208C43.6,192,87,160,131,122.7C174.5,85,218,43,262,58.7C305.5,75,349,149,393,181.3C436.4,213,480,203,524,170.7C567.3,139,611,85,655,96C698.2,107,742,181,785,208C829.1,235,873,213,916,218.7C960,224,1004,256,1047,229.3C1090.9,203,1135,117,1178,112C1221.8,107,1265,181,1309,208C1352.7,235,1396,213,1418,202.7L1440,192L1440,0L1418.2,0C1396.4,0,1353,0,1309,0C1265.5,0,1222,0,1178,0C1134.5,0,1091,0,1047,0C1003.6,0,960,0,916,0C872.7,0,829,0,785,0C741.8,0,698,0,655,0C610.9,0,567,0,524,0C480,0,436,0,393,0C349.1,0,305,0,262,0C218.2,0,175,0,131,0C87.3,0,44,0,22,0L0,0Z"></path></svg>